<svg id="Layer_1" data-name="Layer 1" xmlns="http://www.w3.org/2000/svg" xmlns:xlink="http://www.w3.org/1999/xlink" viewBox="0 0 2150 1080"><defs><style>.cls-1{fill:url(#linear-gradient);}</style><linearGradient id="linear-gradient" x1="62.57" y1="540" x2="2088" y2="540" gradientUnits="userSpaceOnUse"><stop offset="0" stop-color="#fc1481"/><stop offset="1" stop-color="#4d3591"/></linearGradient></defs><path class="cls-1" d="M264.41,338.16C152.94,338.16,62.57,428.53,62.57,540A201.84,201.84,0,0,0,177,722a405,405,0,0,0,81-111.09A406.85,406.85,0,0,0,299.8,436.61a.54.54,0,0,1,1.06-.13c8.92,34.44,22.56,107.78-2.1,194.78A370.8,370.8,0,0,1,246.9,741.09q8.65.74,17.51.75c111.47,0,201.84-90.37,201.84-201.84S375.88,338.16,264.41,338.16Zm75.15,237.27c-.55-.55,1.61-2.78,3-4.45,17.21-21.07,27.87-94.4-9.41-126.53-33.69-29-89.93-10.12-97.7-7.52-62.34,21-112.82,68.25-123.47,81.49a.54.54,0,0,1-.89-.6c18.06-31.46,58.85-90,133-119.54,50.63-20.16,146.58-27.94,178.22,22.55,21.67,34.6,2.85,80.62,1.07,84.81C401.39,557.18,341.71,577.58,339.56,575.43Z"/><path class="cls-1" d="M649.44,625.14A104,104,0,0,1,619.07,645a85.9,85.9,0,0,1-33.27,6.67q-25.92,0-41.3-15.18t-15.38-40.92q0-32.88,28.73-52.61t92.94-30.37V496.89q0-13-10.06-20.6t-26.88-7.64a53.62,53.62,0,0,0-27.57,7.06q-12.09,7.07-20.41,21.18l-28.82-16.64q12.57-21.66,32.11-32.11t47.78-10.44q32.88,0,51.75,16.44t18.86,45.07V617.6a105.64,105.64,0,0,0,1,13.83,144.32,144.32,0,0,0,2.91,15.18v2.32H653.5Zm.39-31.73V542.35q-44.12,7.74-63.84,19.92t-19.73,31.14q0,13,7.93,20.41t21.47,7.45q11.8,0,25.34-7T649.83,593.41Z"/><path class="cls-1" d="M742.06,441.37h37.72l53.78,152.82,49.13-152.82H920L851.55,645.84q-15.48,46.6-32,62.48T775,724.18a112.74,112.74,0,0,1-12.48-.58,69.16,69.16,0,0,1-9.57-1.74V689a54.46,54.46,0,0,0,8,1.45,93.74,93.74,0,0,0,10.16.49q18.76,0,29-10.54t15.67-35.89Z"/><path class="cls-1" d="M982.09,374.83h37.33v66.54h45.46V473.1h-45.46V593.41q0,15.48,5.13,21t18.28,5.52q7,0,12.18-.49a52.62,52.62,0,0,0,9.87-1.83v31.33a89.34,89.34,0,0,1-15.09,2.9,171.64,171.64,0,0,1-19.34,1q-24.76,0-36.56-10.74t-11.8-33.17V473.1H952.88V441.37h29.21Z"/><path class="cls-1" d="M1123.07,441.37h37.72V580.84q0,20.89,7.25,30.47t23.31,9.57q12.2,0,25.15-7t26.31-20.51v-152h37.52V648.93h-34.81v-28q-18.39,16.46-34.15,23.8A75.89,75.89,0,0,1,1179,652q-26.68,0-41.3-15.86t-14.6-45.08Z"/><path class="cls-1" d="M1487.67,471l-24.18,22.63q-10.85-12.57-22.44-19a49.24,49.24,0,0,0-24-6.38q-13.74,0-22,6.67a21.44,21.44,0,0,0-8.22,17.51,21.11,21.11,0,0,0,7.15,16.35q7.15,6.48,31,15.37,40.44,15.09,54.65,29.5t14.22,37.05q0,27.85-20.12,45t-53,17.12a98,98,0,0,1-45-10.35,94,94,0,0,1-34.33-29.88l27.27-21.86q12.57,16.24,25.73,24a54.74,54.74,0,0,0,28.24,7.74q15.28,0,24.86-8a25.66,25.66,0,0,0,9.57-20.6q0-20.12-40.23-34.82-6.78-2.51-10.64-4.06-31.73-12.18-44.1-25.63t-12.38-34.14q0-25.14,18.47-41.3t48.07-16.15q21.66,0,39.17,8.22T1487.67,471Z"/><path class="cls-1" d="M1559.79,361.68h37.14v176l79.69-96.34h41.59L1654,516.23l70.61,132.7h-41.21L1628.65,546l-31.72,35.21v67.7h-37.14Z"/><path class="cls-1" d="M1922.45,551.83H1794v4.06q0,31.14,13.54,48.26T1846,621.27a52,52,0,0,0,28.82-8.12q12.59-8.13,21.48-24.38l27.66,17q-12.76,23.22-33.08,35.11t-47,11.9q-42.56,0-65.18-27.08t-22.64-78.15q0-52.61,22.25-81.24t63.25-28.63q37.92,0,59.58,27.56t21.67,75.93c0,1.16-.07,2.93-.2,5.32S1922.45,550.67,1922.45,551.83Zm-38.11-29q-.57-25.72-12.28-40.33t-31.63-14.61q-20.88,0-32.88,14.42T1794.39,523Z"/><path class="cls-1" d="M2088,439.05v38.69h-3.29q-18.37,0-33.37,13.15t-24.47,37.53V648.93h-38.3V441.37h36.76V483q10.44-22.44,24.37-33.37a50.29,50.29,0,0,1,31.92-10.92q2.51,0,3.87.09C2086.39,438.83,2087.23,438.93,2088,439.05Z"/></svg>